<?xml version="1.0" encoding="utf-8"?>
<!-- Svg Vector Icons : http://www.onlinewebfonts.com/icon -->
<!DOCTYPE svg PUBLIC "-//W3C//DTD SVG 1.1//EN" "http://www.w3.org/Graphics/SVG/1.1/DTD/svg11.dtd">
<svg version="1.1" xmlns="http://www.w3.org/2000/svg" xmlns:xlink="http://www.w3.org/1999/xlink" x="0px" y="0px" viewBox="0 0 1000 1000" enable-background="new 0 0 1000 1000" xml:space="preserve">
<metadata> Svg Vector Icons : http://www.onlinewebfonts.com/icon </metadata>
<g><path d="M941.4,106.3H58.6c-26.2,0-48.6,22.4-48.6,48.6s22.4,48.6,48.6,48.6h882.7c28.1,0,48.6-20.6,48.6-48.6C990,128.8,967.6,106.3,941.4,106.3z"/><path d="M804.8,452.3H197c-26.2,0-48.6,22.4-48.6,48.6c0,26.2,22.4,48.6,48.6,48.6h607.8c26.2,0,48.6-22.4,48.6-48.6C853.5,474.7,831,452.3,804.8,452.3z"/><path d="M666.5,796.4h-331c-26.2,0-48.6,22.4-48.6,48.6c0,26.2,22.4,48.6,48.6,48.6h331c26.2,0,48.6-22.4,48.6-48.6C715.1,818.9,692.6,796.4,666.5,796.4z"/></g>
</svg>